<?xml version="1.0" encoding="UTF-8" standalone="no"?>
<!-- Created with Inkscape (http://www.inkscape.org/) -->

<svg
   width="210mm"
   height="297mm"
   viewBox="0 0 210 297"
   version="1.1"
   id="svg1"
   xmlns="http://www.w3.org/2000/svg"
   xmlns:svg="http://www.w3.org/2000/svg"
   xmlns:rdf="http://www.w3.org/1999/02/22-rdf-syntax-ns#"
   xmlns:cc="http://creativecommons.org/ns#"
   xmlns:dc="http://purl.org/dc/elements/1.1/">
  <defs
     id="defs1" />
  <metadata
     id="metadata1">
    <rdf:RDF>
      <cc:Work
         rdf:about="">
        <dc:format>image/svg+xml</dc:format>
        <dc:type
           rdf:resource="http://purl.org/dc/dcmitype/StillImage" />
      </cc:Work>
    </rdf:RDF>
  </metadata>
  <rect
     style="fill:#f9f9f9;stroke-width:0.264583"
     id="rect1"
     width="92.98214"
     height="185.20833"
     x="65.767853"
     y="80.130951" />
  <rect
     style="fill:#f9f9f9;stroke-width:0.264583"
     id="rect2"
     width="21.922617"
     height="43.089287"
     x="111.88095"
     y="195.03572" />
  <rect
     style="fill:#f2f2f2;stroke-width:0.264583"
     id="rect3"
     width="289.52969"
     height="379.4881"
     x="-49.713093"
     y="-66.379997" />
  <!--!Font Awesome Free 6.7.2 by @fontawesome - https://fontawesome.com License - https://fontawesome.com/license/free Copyright 2025 Fonticons, Inc.-->
  <g
     id="g6"
     transform="matrix(1.1063457,0,0,1.1063457,-3.585122,12.554709)">
    <path
       d="m 126.56273,44.19149 c 1.19691,0 2.1762,0.979286 2.1762,2.176189 V 89.86429 l -0.68006,-0.88408 -18.49762,-23.938098 c -0.61205,-0.802469 -1.57774,-1.264908 -2.58422,-1.264908 -1.00649,0 -1.95858,0.462439 -2.58423,1.264908 L 93.10381,79.64979 88.95545,73.84208 c -0.61206,-0.85687 -1.59134,-1.36012 -2.65224,-1.36012 -1.06089,0 -2.04017,0.50325 -2.65223,1.37372 l -10.88095,15.23334 -0.61205,0.84327 v -0.0408 -43.523807 c 0,-1.196903 0.97928,-2.176188 2.17619,-2.176188 z M 74.33417,37.662917 c -4.801223,0 -8.704765,3.903541 -8.704765,8.704762 V 89.89149 c 0,4.80122 3.903542,8.70476 8.704765,8.70476 h 52.22856 c 4.80122,0 8.70477,-3.90354 8.70477,-8.70476 V 46.367679 c 0,-4.801221 -3.90355,-8.704762 -8.70477,-8.704762 z m 10.88095,26.114287 c 3.60563,0 6.52857,-2.922939 6.52857,-6.528571 0,-3.605633 -2.92294,-6.528572 -6.52857,-6.528572 -3.60563,0 -6.52857,2.922939 -6.52857,6.528572 0,3.605632 2.92294,6.528571 6.52857,6.528571 z"
       id="path1"
       style="fill:#b3b3b3;stroke-width:0.136012" />
  </g>
  <text
     xml:space="preserve"
     style="font-size:25.4px;text-align:start;writing-mode:lr-tb;direction:ltr;text-anchor:start;opacity:0.99;fill:#b3b3b3;stroke-width:0.264583"
     x="37.439999"
     y="211.68002"
     id="text5"><tspan
       id="tspan5"
       style="font-size:25.4px;stroke-width:0.264583"
       x="37.439999"
       y="211.68002">Carregando</tspan></text>
</svg>
